<svg xmlns="http://www.w3.org/2000/svg" viewBox="-0.5 -0.5 32 32" fill="#fff" id="House-Line--Streamline-Phosphor.svg" height="32" width="32"><desc>House Line Streamline Icon: https://streamlinehq.com</desc><path d="M29.677329296875 26.133157421875H27.652v-9.113999999999999l0.296207421875 0.296207421875c0.55250234375 0.55153359375 1.4948781249999998 0.2981328125 1.69625703125 -0.45611171875 0.09347226562500001 -0.350045703125 -0.006914453125 -0.723377734375 -0.26333046875 -0.979345703125L16.931655078125 3.43424296875c-0.7908269531250001 -0.7903183593750001 -2.072483203125 -0.7903183593750001 -2.86331015625 0L1.618866015625 15.879907421875002c-0.5510371093750001 0.55153359375 -0.298387109375 1.49277109375 0.454767578125 1.69422265625 0.34954921875 0.093496484375 0.72242109375 -0.0065875 0.978158984375 -0.26255546875l0.296207421875 -0.2924171875v9.113999999999999H1.322670703125c-0.779553125 0.0008597656250000001 -1.265853515625 0.8452828125 -0.87533828125 1.5199687499999999 0.18084140625 0.312433984375 0.51433359375 0.504973046875 0.87533828125 0.50537265625h28.35465859375c0.779553125 -0.0008597656250000001 1.265853515625 -0.8452828125 0.87533828125 -1.519956640625 -0.18084140625 -0.31244609375 -0.51433359375 -0.5049851562500001 -0.87533828125 -0.505384765625ZM5.373329296875 14.993828124999999 15.5 4.8671574218750004l10.126670703125 10.126670703125v11.139329296875h-6.0760000000000005v-7.08865859375c0 -0.559295703125 -0.45337500000000003 -1.0126949218749999 -1.012670703125 -1.012670703125h-6.0760000000000005c-0.559295703125 -0.00002421875 -1.012670703125 0.45337500000000003 -1.012670703125 1.012670703125v7.08865859375h-6.0760000000000005Zm12.152000000000001 11.139329296875h-4.050658593750001v-6.0760000000000005h4.050658593750001Z" stroke-width="1"></path></svg>