<svg xmlns="http://www.w3.org/2000/svg" viewBox="-0.5 -0.5 32 32" fill="#fff" id="Sneaker-Move--Streamline-Phosphor.svg" height="32" width="32"><desc>Sneaker Move Streamline Icon: https://streamlinehq.com</desc><path d="m29.4466578125 22.620494140625002 -4.0267546874999995 -2.0126749999999998c-2.2928859375 -1.13704609375 -3.7399804687500002 -3.478684375 -3.7313949218749998 -6.038025V10.43615c0 -0.6214167968750001 -0.503762109375 -1.12517890625 -1.12517890625 -1.12517890625 -3.7269265625 -0.003875 -6.747234765625 -3.024183203125 -6.751109765625 -6.751109765625 -0.00079921875 -0.866171484375 -0.9389609375 -1.406661328125 -1.6886765625 -0.9728792968750001 -0.040166796875 0.023237890624999997 -0.07885625 0.048933984375 -0.11583828125 0.07694296875L1.172175390625 9.873560546875l-0.028130078125 0.022499218749999998C0.1058359375 10.736983203125 0.024642578124999998 12.291984375 0.9696339843750001 13.236455078125001L16.96273984375 29.235179687499997c0.2111875 0.210957421875 0.49754999999999994 0.32935078125 0.796058203125 0.32910859375h10.680819921874999c1.242845703125 0 2.250369921875 -1.00752421875 2.250369921875 -2.250369921875v-2.68074921875c0.002724609375 -0.8529359375 -0.479373828125 -1.6333488281250002 -1.243330078125 -2.0126749999999998Zm-1.00703984375 4.69342421875h-10.215275L2.560369921875 11.6499453125 4.3705156249999995 10.277214453125l5.455733593750001 5.455745703125c0.612819140625 0.613896875 1.6603890625000002 0.33419453125 1.8856234375 -0.503471484375 0.104540234375 -0.388759375 -0.006260546875 -0.8037597656250001 -0.29067343749999996 -1.088669140625L6.18064921875 8.904495703125l5.625930859375 -4.263044921875c0.8730253906250001 3.6473921875 3.911364453125 6.374387109374999 7.631558203125 6.849558984375v3.078784375c-0.0113828125 3.4126882812500003 1.918500390625 6.534981640624999 4.9761296875 8.050699999999999l4.0253499999999995 2.0126749999999998ZM6.892329296874999 25.063548437500003H1.43517890625c-0.866159375 0 -1.40752109375 -0.937653125 -0.9744292968750001 -1.687768359375 0.200979296875 -0.34812031250000003 0.5724585937500001 -0.56257734375 0.9744292968750001 -0.5626015625h5.457150390625c0.866171484375 -0.000036328125 1.4075089843750002 0.937592578125 0.974465625 1.687744140625 -0.20099140625 0.348156640625 -0.5724585937500001 0.5626257812500001 -0.974465625 0.5626257812500001Zm5.625930859375 3.3755609375c0 0.6214167968750001 -0.503762109375 1.12517890625 -1.125191015625 1.12517890625H3.685548828125c-0.866159375 0 -1.40752109375 -0.937653125 -0.9744292968750001 -1.687768359375 0.200979296875 -0.34812031250000003 0.5724585937500001 -0.56257734375 0.9744292968750001 -0.5626015625h7.7075203125c0.62142890625 0 1.125191015625 0.503762109375 1.125191015625 1.125191015625Z" stroke-width="1"></path></svg>