<svg xmlns="http://www.w3.org/2000/svg" viewBox="-0.5 -0.5 32 32" fill="#fff" id="Shopping-Bag-Open--Streamline-Phosphor.svg" height="32" width="32"><desc>Shopping Bag Open Streamline Icon: https://streamlinehq.com</desc><path d="M28.353072265625002 2.6469277343749997H2.6469277343749997C1.3562378906249999 2.6468671875000003 0.31 3.693153515625 0.31 4.983843359375v21.03231328125c0 1.290677734375 1.046237890625 2.336976171875 2.336927734375 2.336915625h25.706144531249997c1.290605078125 -0.00004843750000000001 2.336927734375 -1.046310546875 2.336927734375 -2.336915625V4.983843359375c0 -1.29064140625 -1.04627421875 -2.336915625 -2.336927734375 -2.336915625Zm0 2.336915625v2.336927734375H2.6469277343749997V4.983843359375Zm0 21.03231328125H2.6469277343749997V9.65768671875h25.706144531249997v16.358469921875002Zm-5.8423011718749995 -12.853084375c0 5.396894140625 -5.84231328125 8.7699484375 -10.516156640625 6.071507421875 -2.169140234375 -1.2523515625000001 -3.505385546875 -3.5667921875 -3.505385546875 -6.071507421875 0 -0.899484375 0.9737148437500001 -1.46165 1.752698828125 -1.0119199218750001 0.36151328125 0.208729296875 0.58422890625 0.5944734375 0.58422890625 1.0119199218750001 0 3.5979375 3.894871484375 5.846636328125 7.01077109375 4.047667578125 1.4460894531250001 -0.83489296875 2.336915625 -2.3778574218750004 2.336915625 -4.047667578125 0 -0.899484375 0.973726953125 -1.46165 1.752698828125 -1.0119199218750001 0.361525390625 0.208729296875 0.58422890625 0.5944734375 0.58422890625 1.0119199218750001Z" stroke-width="1"></path></svg>